<?xml version="1.0" encoding="UTF-8"?>
<svg width="700pt" height="700pt" version="1.1" viewBox="0 0 700 700" xmlns="http://www.w3.org/2000/svg">
 <g>
  <path d="m201.25 105c-14.473 0-26.25 11.777-26.25 26.25 0 5.8867 2.0156 11.27 5.3008 15.648l3.4648 54.906c0.29297 4.6055 4.1211 8.1953 8.7344 8.1953h17.5c4.6133 0 8.4414-3.5898 8.7344-8.2031l3.4492-54.875c3.293-4.3867 5.3164-9.7773 5.3164-15.672 0-14.473-11.777-26.25-26.25-26.25zm0 17.5c4.8203 0 8.75 3.9219 8.75 8.75s-3.9297 8.75-8.75 8.75c-4.5898 0-8.75-4.0664-8.75-8.75 0-4.8281 3.9297-8.75 8.75-8.75zm-0.53125 70-2.2266-35.277c0.91797 0.097656 1.8125 0.27734 2.7578 0.27734 0.94141 0 1.832-0.17969 2.75-0.27734l-2.2188 35.277z"/>
  <path d="m516.25 227.5h-157.5c-13.789 0-26.352 6.7617-34.555 17.547-0.15234-0.003906-0.29297-0.046875-0.44531-0.046875-11.391 0-21.016 7.3359-24.637 17.5h-36.613v-183.75c0-24.121-19.621-43.75-43.75-43.75h-35c-24.129 0-43.75 19.629-43.75 43.75v192.5c0 4.8359 3.9141 8.75 8.75 8.75h8.75v43.75c0 4.8359 3.9141 8.75 8.75 8.75 33.77 0 61.25 27.48 61.25 61.25v122.5c0 4.8359 3.9141 8.75 8.75 8.75h140c4.8359 0 8.75-3.9141 8.75-8.75 0-43.426 35.324-78.75 78.75-78.75 4.8359 0 8.75-3.9141 8.75-8.75v-26.25h8.75c43.426 0 78.75-35.324 78.75-78.75v-52.5c0-24.121-19.621-43.75-43.75-43.75zm-157.5 17.5h157.5c11.391 0 21.016 7.3359 24.637 17.5h-192.5c-1.4688-4.125-3.9062-7.75-7.0898-10.633 4.7539-4.2656 10.879-6.8672 17.453-6.8672zm-35 17.5c4.8203 0 8.75 3.9219 8.75 8.75s-3.9297 8.75-8.75 8.75-8.75-3.9219-8.75-8.75 3.9297-8.75 8.75-8.75zm-166.25 0v-175h87.5v175zm26.25-210h35c11.391 0 21.016 7.3359 24.637 17.5h-84.273c3.6211-10.164 13.246-17.5 24.637-17.5zm70 227.5h45.363c2.6445 7.4141 8.4766 13.242 15.887 15.887v19.113h-140v-35zm-38.613 52.5h99.863v96.25c0 14.473-11.777 26.25-26.25 26.25h-43.75v-61.25c0-24.867-11.812-46.809-29.863-61.25zm239.86 87.895c-46.109 4.1719-82.938 41-87.105 87.105h-122.89v-35h43.75c24.129 0 43.75-19.629 43.75-43.75v-56.113c14.441 18.051 36.383 29.863 61.25 29.863h61.25zm26.25-35.395h-87.5c-33.77 0-61.25-27.48-61.25-61.25v-27.863c7.4141-2.6445 13.242-8.4766 15.887-15.887h194.11v43.75c0 33.77-27.48 61.25-61.25 61.25z"/>
  <path d="m525 315.32c-4.375-0.019531-8.75 2.7695-8.75 8.4297 0 19.301-15.703 35-35 35-11.277 0-11.297 17.5 0 17.5 28.949 0 52.5-23.551 52.5-52.5 0-5.582-4.375-8.4102-8.75-8.4297z"/>
 </g>
</svg>
